<svg xmlns="http://www.w3.org/2000/svg" xmlns:xlink="http://www.w3.org/1999/xlink" width="2133" zoomAndPan="magnify" viewBox="0 0 1599.75 1599.749952" height="2133" preserveAspectRatio="xMidYMid meet" version="1.0"><defs><g/><clipPath id="c4c9072260"><path d="M 164 409 L 1358 409 L 1358 1599.5 L 164 1599.5 Z M 164 409 " clip-rule="nonzero"/></clipPath><clipPath id="e8496c5d50"><path d="M 159.949219 405.90625 L 1361 405.90625 L 1361 1599.5 L 159.949219 1599.5 Z M 159.949219 405.90625 " clip-rule="nonzero"/></clipPath></defs><g clip-path="url(#c4c9072260)"><path fill="#164f83" d="M 1357.121094 693.421875 L 1357.121094 1602.667969 L 447.464844 1602.667969 C 291.117188 1603.074219 164.011719 1475.96875 164.011719 1319.214844 L 164.011719 409.96875 L 1073.257812 409.96875 C 1230.011719 409.96875 1357.121094 537.074219 1357.121094 693.421875 Z M 1357.121094 693.421875 L 1357.121094 1602.667969 L 447.464844 1602.667969 C 291.117188 1603.074219 164.011719 1475.96875 164.011719 1319.214844 L 164.011719 409.96875 L 1073.257812 409.96875 C 1230.011719 409.96875 1357.121094 537.074219 1357.121094 693.421875 Z M 1357.121094 693.421875 " fill-opacity="1" fill-rule="nonzero"/></g><g clip-path="url(#e8496c5d50)"><path fill="#164f83" d="M 1357.121094 1607.136719 L 447.464844 1607.136719 C 289.089844 1607.136719 159.949219 1478 159.949219 1319.214844 L 159.949219 409.96875 C 159.949219 407.53125 161.574219 405.90625 164.011719 405.90625 L 1073.257812 405.90625 C 1232.042969 405.90625 1360.773438 535.042969 1360.773438 693.421875 L 1360.773438 1602.667969 C 1361.179688 1605.105469 1359.148438 1607.136719 1357.121094 1607.136719 Z M 168.070312 414.027344 L 168.070312 1319.214844 C 168.070312 1473.53125 293.554688 1598.609375 447.464844 1598.609375 L 1352.652344 1598.609375 L 1352.652344 693.421875 C 1352.652344 539.105469 1227.167969 414.027344 1073.257812 414.027344 Z M 168.070312 414.027344 " fill-opacity="1" fill-rule="nonzero"/></g><g fill="#47a7f6" fill-opacity="1"><g transform="translate(226.45391, 1535.094361)"><g><path d="M 981.046875 -1219.125 C 927.679688 -1247.863281 870.894531 -1271.125 810.6875 -1288.90625 C 750.488281 -1306.695312 693.707031 -1315.59375 640.34375 -1315.59375 C 559.625 -1315.59375 495.660156 -1297.460938 448.453125 -1261.203125 C 401.242188 -1224.941406 377.640625 -1175.34375 377.640625 -1112.40625 C 377.640625 -1050.832031 405.347656 -1000.546875 460.765625 -961.546875 C 516.179688 -922.554688 595.195312 -883.90625 697.8125 -845.59375 C 774.4375 -818.226562 839.085938 -788.46875 891.765625 -756.3125 C 944.441406 -724.15625 988.222656 -679.6875 1023.109375 -622.90625 C 1058.003906 -566.125 1075.453125 -493.945312 1075.453125 -406.375 C 1075.453125 -327.019531 1055.613281 -255.1875 1015.9375 -190.875 C 976.257812 -126.5625 919.816406 -75.929688 846.609375 -38.984375 C 773.410156 -2.046875 687.554688 16.421875 589.046875 16.421875 C 497.367188 16.421875 409.113281 1.710938 324.28125 -27.703125 C 239.445312 -57.117188 164.875 -94.40625 100.5625 -139.5625 L 188.828125 -297.59375 C 239.453125 -259.28125 300.335938 -226.785156 371.484375 -200.109375 C 442.628906 -173.429688 508.988281 -160.09375 570.5625 -160.09375 C 649.925781 -160.09375 719.367188 -180.613281 778.890625 -221.65625 C 838.410156 -262.707031 868.171875 -323.597656 868.171875 -404.328125 C 868.171875 -472.734375 843.195312 -527.117188 793.25 -567.484375 C 743.3125 -607.847656 673.191406 -645.820312 582.890625 -681.40625 C 499.421875 -712.875 429.976562 -743.65625 374.5625 -773.75 C 319.144531 -803.851562 271.597656 -845.242188 231.921875 -897.921875 C 192.242188 -950.609375 172.40625 -1016.628906 172.40625 -1095.984375 C 172.40625 -1212.285156 213.109375 -1306.351562 294.515625 -1378.1875 C 375.929688 -1450.019531 481.628906 -1487.988281 611.609375 -1492.09375 C 771.703125 -1492.09375 920.160156 -1452.414062 1056.984375 -1373.0625 Z M 981.046875 -1219.125 "/></g></g></g></svg>