<svg xmlns="http://www.w3.org/2000/svg" xmlns:xlink="http://www.w3.org/1999/xlink" width="5120" zoomAndPan="magnify" viewBox="0 0 3840 800.24998" height="1067" preserveAspectRatio="xMidYMid meet" version="1.0"><defs><g/><clipPath id="ee00d32104"><path d="M 1.796875 0 L 801.296875 0 L 801.296875 799.5 L 1.796875 799.5 Z M 1.796875 0 " clip-rule="nonzero"/></clipPath><clipPath id="21336e82cb"><path d="M 841.148438 0 L 2990.882812 0 L 2990.882812 443 L 841.148438 443 Z M 841.148438 0 " clip-rule="nonzero"/></clipPath><clipPath id="55daa65f89"><path d="M 2749.316406 526.269531 L 2944 526.269531 L 2944 721 L 2749.316406 721 Z M 2749.316406 526.269531 " clip-rule="nonzero"/></clipPath></defs><g clip-path="url(#ee00d32104)"><path fill="#47a7f6" d="M 801.296875 399.75 C 801.296875 406.292969 801.136719 412.832031 800.816406 419.363281 C 800.496094 425.898438 800.015625 432.421875 799.375 438.933594 C 798.730469 445.445312 797.929688 451.933594 796.972656 458.40625 C 796.011719 464.878906 794.894531 471.320312 793.617188 477.738281 C 792.339844 484.152344 790.90625 490.535156 789.316406 496.882812 C 787.730469 503.226562 785.984375 509.53125 784.085938 515.792969 C 782.1875 522.050781 780.132812 528.261719 777.929688 534.421875 C 775.726562 540.582031 773.371094 546.683594 770.871094 552.726562 C 768.367188 558.773438 765.714844 564.75 762.917969 570.664062 C 760.121094 576.578125 757.179688 582.421875 754.097656 588.191406 C 751.011719 593.960938 747.789062 599.652344 744.425781 605.261719 C 741.0625 610.875 737.5625 616.398438 733.929688 621.839844 C 730.292969 627.28125 726.527344 632.625 722.628906 637.882812 C 718.734375 643.136719 714.710938 648.292969 710.558594 653.347656 C 706.410156 658.40625 702.136719 663.359375 697.742188 668.207031 C 693.351562 673.054688 688.839844 677.789062 684.214844 682.417969 C 679.589844 687.042969 674.851562 691.550781 670.003906 695.945312 C 665.15625 700.339844 660.203125 704.609375 655.148438 708.761719 C 650.089844 712.910156 644.933594 716.9375 639.679688 720.832031 C 634.425781 724.730469 629.078125 728.496094 623.636719 732.128906 C 618.199219 735.765625 612.671875 739.265625 607.0625 742.628906 C 601.449219 745.992188 595.757812 749.214844 589.988281 752.296875 C 584.21875 755.382812 578.378906 758.324219 572.464844 761.121094 C 566.550781 763.917969 560.570312 766.566406 554.527344 769.070312 C 548.480469 771.574219 542.378906 773.929688 536.21875 776.132812 C 530.058594 778.335938 523.851562 780.386719 517.589844 782.289062 C 511.328125 784.1875 505.027344 785.929688 498.679688 787.519531 C 492.332031 789.109375 485.953125 790.542969 479.535156 791.820312 C 473.117188 793.097656 466.675781 794.214844 460.203125 795.175781 C 453.730469 796.132812 447.242188 796.933594 440.730469 797.574219 C 434.21875 798.21875 427.699219 798.699219 421.164062 799.019531 C 414.628906 799.339844 408.089844 799.5 401.546875 799.5 C 395.007812 799.5 388.46875 799.339844 381.933594 799.019531 C 375.398438 798.699219 368.875 798.21875 362.367188 797.574219 C 355.855469 796.933594 349.363281 796.132812 342.890625 795.175781 C 336.421875 794.214844 329.976562 793.097656 323.5625 791.820312 C 317.144531 790.542969 310.761719 789.109375 304.417969 787.519531 C 298.070312 785.929688 291.765625 784.1875 285.507812 782.289062 C 279.246094 780.386719 273.035156 778.335938 266.875 776.132812 C 260.714844 773.929688 254.613281 771.574219 248.570312 769.070312 C 242.527344 766.566406 236.546875 763.917969 230.632812 761.121094 C 224.71875 758.324219 218.875 755.382812 213.105469 752.296875 C 207.335938 749.214844 201.648438 745.992188 196.035156 742.628906 C 190.425781 739.265625 184.898438 735.765625 179.457031 732.128906 C 174.019531 728.496094 168.671875 724.730469 163.417969 720.832031 C 158.164062 716.9375 153.007812 712.910156 147.949219 708.761719 C 142.890625 704.609375 137.941406 700.339844 133.09375 695.945312 C 128.246094 691.550781 123.507812 687.042969 118.882812 682.417969 C 114.257812 677.789062 109.746094 673.054688 105.351562 668.207031 C 100.960938 663.359375 96.6875 658.40625 92.535156 653.347656 C 88.386719 648.292969 84.363281 643.136719 80.464844 637.882812 C 76.570312 632.625 72.800781 627.28125 69.167969 621.839844 C 65.535156 616.398438 62.035156 610.875 58.671875 605.261719 C 55.308594 599.652344 52.082031 593.960938 49 588.191406 C 45.914062 582.421875 42.976562 576.578125 40.179688 570.664062 C 37.382812 564.75 34.730469 558.773438 32.226562 552.726562 C 29.722656 546.683594 27.371094 540.582031 25.164062 534.421875 C 22.960938 528.261719 20.910156 522.050781 19.011719 515.792969 C 17.113281 509.53125 15.367188 503.226562 13.777344 496.882812 C 12.1875 490.535156 10.753906 484.152344 9.480469 477.738281 C 8.203125 471.320312 7.085938 464.878906 6.125 458.40625 C 5.164062 451.933594 4.363281 445.445312 3.722656 438.933594 C 3.082031 432.421875 2.601562 425.898438 2.28125 419.363281 C 1.957031 412.832031 1.796875 406.292969 1.796875 399.75 C 1.796875 393.207031 1.957031 386.667969 2.28125 380.136719 C 2.601562 373.601562 3.082031 367.078125 3.722656 360.566406 C 4.363281 354.058594 5.164062 347.566406 6.125 341.09375 C 7.085938 334.625 8.203125 328.179688 9.480469 321.761719 C 10.753906 315.347656 12.1875 308.964844 13.777344 302.617188 C 15.367188 296.273438 17.113281 289.96875 19.011719 283.707031 C 20.910156 277.449219 22.960938 271.238281 25.164062 265.078125 C 27.371094 258.917969 29.722656 252.816406 32.226562 246.773438 C 34.730469 240.726562 37.382812 234.75 40.179688 228.835938 C 42.976562 222.921875 45.914062 217.078125 49 211.308594 C 52.082031 205.539062 55.308594 199.847656 58.671875 194.238281 C 62.035156 188.625 65.535156 183.101562 69.167969 177.660156 C 72.800781 172.222656 76.570312 166.875 80.464844 161.621094 C 84.363281 156.363281 88.386719 151.207031 92.535156 146.152344 C 96.6875 141.09375 100.960938 136.140625 105.351562 131.292969 C 109.746094 126.445312 114.257812 121.710938 118.882812 117.085938 C 123.507812 112.457031 128.246094 107.949219 133.09375 103.554688 C 137.941406 99.160156 142.890625 94.890625 147.949219 90.738281 C 153.007812 86.589844 158.164062 82.566406 163.417969 78.667969 C 168.671875 74.769531 174.019531 71.003906 179.457031 67.371094 C 184.898438 63.734375 190.425781 60.238281 196.035156 56.871094 C 201.648438 53.507812 207.335938 50.285156 213.105469 47.203125 C 218.875 44.117188 224.71875 41.175781 230.632812 38.378906 C 236.546875 35.582031 242.527344 32.933594 248.570312 30.429688 C 254.613281 27.925781 260.714844 25.570312 266.875 23.367188 C 273.035156 21.164062 279.246094 19.113281 285.507812 17.214844 C 291.765625 15.3125 298.070312 13.570312 304.417969 11.980469 C 310.761719 10.390625 317.144531 8.957031 323.5625 7.679688 C 329.976562 6.40625 336.421875 5.285156 342.890625 4.328125 C 349.363281 3.367188 355.855469 2.566406 362.367188 1.925781 C 368.875 1.285156 375.398438 0.800781 381.933594 0.480469 C 388.46875 0.160156 395.007812 0 401.546875 0 C 408.089844 0 414.628906 0.160156 421.164062 0.480469 C 427.699219 0.800781 434.21875 1.285156 440.730469 1.925781 C 447.242188 2.566406 453.730469 3.367188 460.203125 4.328125 C 466.675781 5.285156 473.117188 6.40625 479.535156 7.679688 C 485.953125 8.957031 492.332031 10.390625 498.679688 11.980469 C 505.027344 13.570312 511.328125 15.3125 517.589844 17.214844 C 523.851562 19.113281 530.058594 21.164062 536.21875 23.367188 C 542.378906 25.570312 548.480469 27.925781 554.527344 30.429688 C 560.570312 32.933594 566.550781 35.582031 572.464844 38.378906 C 578.378906 41.175781 584.21875 44.117188 589.988281 47.203125 C 595.757812 50.285156 601.449219 53.507812 607.0625 56.871094 C 612.671875 60.238281 618.199219 63.734375 623.636719 67.371094 C 629.078125 71.003906 634.425781 74.769531 639.679688 78.667969 C 644.933594 82.566406 650.089844 86.589844 655.148438 90.738281 C 660.203125 94.890625 665.15625 99.160156 670.003906 103.554688 C 674.851562 107.949219 679.589844 112.457031 684.214844 117.085938 C 688.839844 121.710938 693.351562 126.445312 697.742188 131.292969 C 702.136719 136.140625 706.410156 141.09375 710.558594 146.152344 C 714.710938 151.207031 718.734375 156.363281 722.628906 161.621094 C 726.527344 166.875 730.292969 172.222656 733.929688 177.660156 C 737.5625 183.101562 741.0625 188.625 744.425781 194.238281 C 747.789062 199.847656 751.011719 205.539062 754.097656 211.308594 C 757.179688 217.078125 760.121094 222.921875 762.917969 228.835938 C 765.714844 234.75 768.367188 240.726562 770.871094 246.773438 C 773.371094 252.816406 775.726562 258.917969 777.929688 265.078125 C 780.132812 271.238281 782.1875 277.449219 784.085938 283.707031 C 785.984375 289.96875 787.730469 296.273438 789.320312 302.617188 C 790.90625 308.964844 792.339844 315.347656 793.617188 321.761719 C 794.894531 328.179688 796.011719 334.625 796.972656 341.09375 C 797.929688 347.566406 798.730469 354.058594 799.375 360.566406 C 800.015625 367.078125 800.496094 373.601562 800.816406 380.136719 C 801.136719 386.667969 801.296875 393.207031 801.296875 399.75 Z M 801.296875 399.75 " fill-opacity="1" fill-rule="nonzero"/></g><path stroke-linecap="butt" transform="matrix(1.561525, 0, 0, 1.561525, 1.797801, 0)" fill-opacity="1" fill="#ffffff" fill-rule="nonzero" stroke-linejoin="miter" d="M 362.808367 368.807704 L 244.121785 368.807704 C 178.698448 368.807704 125.457716 315.561969 125.457716 250.121122 C 125.457716 184.702789 178.698448 131.457053 244.124286 131.457053 C 309.565133 131.457053 362.808367 184.702789 362.808367 250.121122 Z M 362.808367 368.807704 " stroke="#ffffff" stroke-width="6" stroke-opacity="1" stroke-miterlimit="4"/><path fill="#ededed" d="M 1071.738281 210.203125 C 1066.8125 202.65625 1059.421875 196.335938 1049.570312 191.246094 C 1039.714844 186.160156 1029.207031 183.617188 1018.039062 183.617188 C 1005.886719 183.617188 995.132812 185.914062 985.769531 190.507812 C 976.410156 195.105469 968.445312 201.257812 961.878906 208.972656 C 955.308594 216.6875 950.300781 225.632812 946.851562 235.808594 C 943.402344 245.984375 941.679688 256.652344 941.679688 267.8125 C 941.679688 278.976562 943.402344 289.644531 946.851562 299.820312 C 950.300781 309.996094 955.308594 318.941406 961.878906 326.65625 C 968.445312 334.367188 976.492188 340.523438 986.015625 345.121094 C 995.542969 349.714844 1006.378906 352.011719 1018.53125 352.011719 C 1030.355469 352.011719 1041.113281 349.714844 1050.800781 345.121094 C 1060.488281 340.523438 1068.453125 334.285156 1074.695312 326.410156 L 1105.730469 354.472656 C 1095.878906 365.964844 1083.5625 374.910156 1068.78125 381.308594 C 1054.003906 387.710938 1037.253906 390.910156 1018.53125 390.910156 C 1000.46875 390.910156 983.800781 387.957031 968.527344 382.046875 C 953.257812 376.140625 940.039062 367.851562 928.871094 357.183594 C 917.703125 346.515625 908.917969 333.628906 902.515625 318.53125 C 896.109375 303.429688 892.90625 286.523438 892.90625 267.8125 C 892.90625 249.429688 896.027344 232.691406 902.269531 217.589844 C 908.507812 202.492188 917.210938 189.523438 928.378906 178.691406 C 939.542969 167.859375 952.765625 159.488281 968.035156 153.582031 C 983.308594 147.671875 999.8125 144.71875 1017.546875 144.71875 C 1033.96875 144.71875 1050.308594 148 1066.566406 154.566406 C 1082.820312 161.128906 1095.714844 170.648438 1105.238281 183.125 Z M 1199.824219 186.570312 C 1205.410156 175.082031 1214.933594 165.234375 1228.398438 157.027344 C 1241.863281 148.820312 1256.972656 144.71875 1273.722656 144.71875 C 1288.828125 144.71875 1301.804688 147.261719 1312.640625 152.347656 C 1323.480469 157.4375 1332.511719 164.25 1339.738281 172.785156 C 1346.960938 181.316406 1352.300781 191.328125 1355.746094 202.820312 C 1359.195312 214.308594 1360.921875 226.617188 1360.921875 239.75 L 1360.921875 384.511719 L 1314.613281 384.511719 L 1314.613281 255.503906 C 1314.613281 245.984375 1313.871094 236.957031 1312.394531 228.421875 C 1310.917969 219.886719 1308.207031 212.339844 1304.265625 205.773438 C 1300.324219 199.207031 1294.988281 193.957031 1288.253906 190.015625 C 1281.523438 186.078125 1272.738281 184.109375 1261.898438 184.109375 C 1243.507812 184.109375 1228.398438 191.082031 1216.574219 205.035156 C 1204.75 218.984375 1198.839844 237.613281 1198.839844 260.921875 L 1198.839844 384.511719 L 1152.53125 384.511719 L 1152.53125 12.265625 L 1198.839844 12.265625 L 1198.839844 186.570312 Z M 1584.582031 233.347656 C 1584.582031 215.949219 1579.328125 203.066406 1568.816406 194.695312 C 1558.304688 186.324219 1544.347656 182.136719 1526.941406 182.136719 C 1513.804688 182.136719 1501.40625 184.683594 1489.746094 189.769531 C 1478.085938 194.859375 1468.316406 201.339844 1460.433594 209.21875 L 1435.800781 179.675781 C 1447.296875 168.84375 1461.335938 160.308594 1477.921875 154.074219 C 1494.507812 147.835938 1512.328125 144.71875 1531.375 144.71875 C 1548.125 144.71875 1562.660156 147.097656 1574.972656 151.855469 C 1587.289062 156.617188 1597.390625 163.097656 1605.273438 171.304688 C 1613.15625 179.511719 1619.066406 189.195312 1623.007812 200.355469 C 1626.949219 211.519531 1628.917969 223.5 1628.917969 236.300781 L 1628.917969 338.226562 C 1628.917969 346.105469 1629.164062 354.390625 1629.65625 363.089844 C 1630.152344 371.789062 1631.054688 378.929688 1632.367188 384.511719 L 1590.492188 384.511719 C 1587.867188 373.347656 1586.550781 362.1875 1586.550781 351.027344 L 1585.074219 351.027344 C 1576.535156 363.5 1565.777344 373.183594 1552.804688 380.078125 C 1539.832031 386.972656 1524.476562 390.417969 1506.742188 390.417969 C 1497.546875 390.417969 1487.941406 389.1875 1477.921875 386.726562 C 1467.90625 384.265625 1458.792969 380.242188 1450.582031 374.664062 C 1442.371094 369.082031 1435.554688 361.695312 1430.136719 352.503906 C 1424.71875 343.3125 1422.007812 331.988281 1422.007812 318.53125 C 1422.007812 300.804688 1426.769531 286.769531 1436.292969 276.429688 C 1445.820312 266.089844 1458.300781 258.210938 1473.734375 252.796875 C 1489.171875 247.378906 1506.578125 243.851562 1525.957031 242.210938 C 1545.332031 240.570312 1564.875 239.75 1584.582031 239.75 Z M 1573.25 273.230469 C 1561.753906 273.230469 1549.851562 273.722656 1537.535156 274.707031 C 1525.21875 275.691406 1514.050781 277.660156 1504.035156 280.617188 C 1494.015625 283.570312 1485.722656 288.003906 1479.15625 293.910156 C 1472.585938 299.820312 1469.300781 307.699219 1469.300781 317.546875 C 1469.300781 324.4375 1470.699219 330.183594 1473.488281 334.777344 C 1476.28125 339.375 1479.976562 343.148438 1484.574219 346.105469 C 1489.171875 349.058594 1494.261719 351.109375 1499.847656 352.257812 C 1505.429688 353.40625 1511.175781 353.980469 1517.089844 353.980469 C 1538.765625 353.980469 1555.433594 347.5 1567.09375 334.53125 C 1578.75 321.566406 1584.582031 305.234375 1584.582031 285.539062 L 1584.582031 273.230469 Z M 1815.632812 189.03125 L 1753.558594 189.03125 L 1753.558594 310.652344 C 1753.558594 324.765625 1756.1875 334.859375 1761.441406 340.933594 C 1766.695312 347.007812 1775.070312 350.042969 1786.566406 350.042969 C 1790.835938 350.042969 1795.433594 349.550781 1800.359375 348.566406 C 1805.285156 347.582031 1809.71875 346.105469 1813.660156 344.132812 L 1815.140625 382.046875 C 1809.554688 384.019531 1803.398438 385.578125 1796.664062 386.726562 C 1789.933594 387.875 1782.953125 388.449219 1775.726562 388.449219 C 1753.722656 388.449219 1736.890625 382.375 1725.230469 370.230469 C 1713.570312 358.085938 1707.742188 339.867188 1707.742188 315.574219 L 1707.742188 189.03125 L 1662.910156 189.03125 L 1662.910156 151.117188 L 1707.742188 151.117188 L 1707.742188 84.152344 L 1753.558594 84.152344 L 1753.558594 151.117188 L 1815.632812 151.117188 Z M 1906.863281 151.117188 L 1959.574219 329.363281 L 1960.558594 329.363281 L 2016.230469 151.117188 L 2065 151.117188 L 2121.65625 329.363281 L 2122.640625 329.363281 L 2175.351562 151.117188 L 2224.125 151.117188 L 2146.78125 384.511719 L 2098.5 384.511719 L 2040.859375 209.21875 L 2039.875 209.21875 L 1982.730469 384.511719 L 1934.449219 384.511719 L 1856.613281 151.117188 Z M 2506.902344 267.320312 C 2506.902344 285.375 2503.703125 301.953125 2497.296875 317.054688 C 2490.890625 332.152344 2482.023438 345.199219 2470.695312 356.199219 C 2459.363281 367.195312 2445.980469 375.730469 2430.542969 381.800781 C 2415.105469 387.875 2398.523438 390.910156 2380.785156 390.910156 C 2363.050781 390.910156 2346.464844 387.875 2331.027344 381.800781 C 2315.59375 375.730469 2302.292969 367.195312 2291.125 356.199219 C 2279.957031 345.199219 2271.171875 332.152344 2264.769531 317.054688 C 2258.363281 301.953125 2255.160156 285.375 2255.160156 267.320312 C 2255.160156 249.265625 2258.363281 232.773438 2264.769531 217.835938 C 2271.171875 202.902344 2279.957031 190.015625 2291.125 179.183594 C 2302.292969 168.351562 2315.59375 159.898438 2331.027344 153.828125 C 2346.464844 147.753906 2363.050781 144.71875 2380.785156 144.71875 C 2398.523438 144.71875 2415.105469 147.753906 2430.542969 153.828125 C 2445.980469 159.898438 2459.363281 168.351562 2470.695312 179.183594 C 2482.023438 190.015625 2490.890625 202.902344 2497.296875 217.835938 C 2503.703125 232.773438 2506.902344 249.265625 2506.902344 267.320312 Z M 2458.625 267.320312 C 2458.625 256.160156 2456.898438 245.492188 2453.453125 235.316406 C 2450.003906 225.140625 2444.996094 216.195312 2438.425781 208.480469 C 2431.855469 200.765625 2423.730469 194.613281 2414.039062 190.015625 C 2404.351562 185.421875 2393.265625 183.125 2380.785156 183.125 C 2368.304688 183.125 2357.222656 185.421875 2347.53125 190.015625 C 2337.84375 194.613281 2329.714844 200.765625 2323.148438 208.480469 C 2316.578125 216.195312 2311.570312 225.140625 2308.121094 235.316406 C 2304.671875 245.492188 2302.949219 256.160156 2302.949219 267.320312 C 2302.949219 278.484375 2304.671875 289.152344 2308.121094 299.328125 C 2311.570312 309.503906 2316.578125 318.53125 2323.148438 326.410156 C 2329.714844 334.285156 2337.84375 340.523438 2347.53125 345.121094 C 2357.222656 349.714844 2368.304688 352.011719 2380.785156 352.011719 C 2393.265625 352.011719 2404.351562 349.714844 2414.039062 345.121094 C 2423.730469 340.523438 2431.855469 334.285156 2438.425781 326.410156 C 2444.996094 318.53125 2450.003906 309.503906 2453.453125 299.328125 C 2456.898438 289.152344 2458.625 278.484375 2458.625 267.320312 Z M 2807.417969 267.320312 C 2807.417969 285.375 2804.214844 301.953125 2797.808594 317.054688 C 2791.40625 332.152344 2782.539062 345.199219 2771.207031 356.199219 C 2759.875 367.195312 2746.492188 375.730469 2731.058594 381.800781 C 2715.621094 387.875 2699.035156 390.910156 2681.300781 390.910156 C 2663.5625 390.910156 2646.980469 387.875 2631.542969 381.800781 C 2616.105469 375.730469 2602.804688 367.195312 2591.636719 356.199219 C 2580.472656 345.199219 2571.6875 332.152344 2565.28125 317.054688 C 2558.878906 301.953125 2555.675781 285.375 2555.675781 267.320312 C 2555.675781 249.265625 2558.878906 232.773438 2565.28125 217.835938 C 2571.6875 202.902344 2580.472656 190.015625 2591.636719 179.183594 C 2602.804688 168.351562 2616.105469 159.898438 2631.542969 153.828125 C 2646.980469 147.753906 2663.5625 144.71875 2681.300781 144.71875 C 2699.035156 144.71875 2715.621094 147.753906 2731.058594 153.828125 C 2746.492188 159.898438 2759.875 168.351562 2771.207031 179.183594 C 2782.539062 190.015625 2791.40625 202.902344 2797.808594 217.835938 C 2804.214844 232.773438 2807.417969 249.265625 2807.417969 267.320312 Z M 2759.136719 267.320312 C 2759.136719 256.160156 2757.414062 245.492188 2753.964844 235.316406 C 2750.515625 225.140625 2745.507812 216.195312 2738.9375 208.480469 C 2732.371094 200.765625 2724.242188 194.613281 2714.554688 190.015625 C 2704.863281 185.421875 2693.78125 183.125 2681.300781 183.125 C 2668.820312 183.125 2657.734375 185.421875 2648.046875 190.015625 C 2638.355469 194.613281 2630.230469 200.765625 2623.660156 208.480469 C 2617.089844 216.195312 2612.082031 225.140625 2608.632812 235.316406 C 2605.1875 245.492188 2603.460938 256.160156 2603.460938 267.320312 C 2603.460938 278.484375 2605.1875 289.152344 2608.632812 299.328125 C 2612.082031 309.503906 2617.089844 318.53125 2623.660156 326.410156 C 2630.230469 334.285156 2638.355469 340.523438 2648.046875 345.121094 C 2657.734375 349.714844 2668.820312 352.011719 2681.300781 352.011719 C 2693.78125 352.011719 2704.863281 349.714844 2714.554688 345.121094 C 2724.242188 340.523438 2732.371094 334.285156 2738.9375 326.410156 C 2745.507812 318.53125 2750.515625 309.503906 2753.964844 299.328125 C 2757.414062 289.152344 2759.136719 278.484375 2759.136719 267.320312 Z M 2985.753906 189.03125 L 2923.679688 189.03125 L 2923.679688 310.652344 C 2923.679688 324.765625 2926.308594 334.859375 2931.5625 340.933594 C 2936.820312 347.007812 2945.191406 350.042969 2956.6875 350.042969 C 2960.957031 350.042969 2965.554688 349.550781 2970.480469 348.566406 C 2975.410156 347.582031 2979.84375 346.105469 2983.785156 344.132812 L 2985.261719 382.046875 C 2979.679688 384.019531 2973.519531 385.578125 2966.789062 386.726562 C 2960.054688 387.875 2953.074219 388.449219 2945.851562 388.449219 C 2923.84375 388.449219 2907.011719 382.375 2895.355469 370.230469 C 2883.695312 358.085938 2877.863281 339.867188 2877.863281 315.574219 L 2877.863281 189.03125 L 2833.035156 189.03125 L 2833.035156 151.117188 L 2877.863281 151.117188 L 2877.863281 84.152344 L 2923.679688 84.152344 L 2923.679688 151.117188 L 2985.753906 151.117188 Z M 2985.753906 189.03125 " fill-opacity="1" fill-rule="nonzero"/><g clip-path="url(#21336e82cb)"><path stroke-linecap="butt" transform="matrix(1.139175, 0, 0, 1.138581, 191.175727, -82.237581)" fill="none" stroke-linejoin="miter" d="M 772.982759 256.846577 C 768.658768 250.218262 762.171068 244.66722 753.523088 240.196882 C 744.871678 235.729974 735.647622 233.49652 725.844063 233.49652 C 715.176391 233.49652 705.736308 235.513834 697.516954 239.54846 C 689.30103 243.586517 682.309264 248.990034 676.545087 255.765874 C 670.77748 262.541713 666.381481 270.398256 663.353659 279.335502 C 660.325837 288.272748 658.81364 297.642275 658.81364 307.444084 C 658.81364 317.249324 660.325837 326.618852 663.353659 335.556098 C 666.381481 344.493344 670.77748 352.349887 676.545087 359.125726 C 682.309264 365.898135 689.373039 371.305083 697.732982 375.34314 C 706.096355 379.377766 715.608448 381.395079 726.276119 381.395079 C 736.655753 381.395079 746.099266 379.377766 754.603228 375.34314 C 763.10719 371.305083 770.098955 365.826088 775.578525 358.909585 L 802.822064 383.556486 C 794.174083 393.649914 783.362393 401.506456 770.386993 407.126114 C 757.415022 412.749203 742.711397 415.559032 726.276119 415.559032 C 710.420345 415.559032 695.78873 412.965344 682.381274 407.774536 C 668.977246 402.58716 657.373453 395.306992 647.569894 385.937465 C 637.766334 376.567937 630.054475 365.249712 624.434317 351.989652 C 618.810729 338.726161 615.998935 323.877639 615.998935 307.444084 C 615.998935 291.298718 618.73872 276.59772 624.218289 263.334229 C 629.694429 250.074169 637.334278 238.683897 647.137838 229.170276 C 656.937968 219.656654 668.54519 212.30444 681.949217 207.117063 C 695.356674 201.926256 709.84427 199.332567 725.412007 199.332567 C 739.827594 199.332567 754.171172 202.214443 768.44274 207.981626 C 782.71088 213.745378 794.030065 222.106249 802.390008 233.064239 Z M 885.420224 236.090209 C 890.323718 226.000212 898.683661 217.351154 910.503482 210.143033 C 922.323304 202.934912 935.586741 199.332567 950.290366 199.332567 C 963.550374 199.332567 974.941568 201.566021 984.453661 206.032929 C 993.969183 210.503267 1001.89707 216.486591 1008.240752 223.982899 C 1014.581004 231.475776 1019.26847 240.268929 1022.292863 250.362356 C 1025.320685 260.452353 1026.836311 271.262818 1026.836311 282.797184 L 1026.836311 409.939374 L 986.185315 409.939374 L 986.185315 296.633619 C 986.185315 288.272748 985.533802 280.344158 984.237633 272.84785 C 982.941465 265.351542 980.561727 258.723227 977.101849 252.956045 C 973.641971 247.188862 968.957934 242.57786 963.046309 239.116178 C 957.138113 235.657927 949.426253 233.928802 939.910732 233.928802 C 923.76692 233.928802 910.503482 240.052788 900.123848 252.307622 C 889.744214 264.559026 884.556111 280.920533 884.556111 301.392145 L 884.556111 409.939374 L 843.905116 409.939374 L 843.905116 83.000842 L 884.556111 83.000842 L 884.556111 236.090209 Z M 1223.171532 277.174095 C 1223.171532 261.893291 1218.559505 250.578497 1209.33202 243.226282 C 1200.104536 235.874068 1187.852658 232.196245 1172.572959 232.196245 C 1161.041175 232.196245 1150.157475 234.43313 1139.92186 238.900038 C 1129.686244 243.370376 1121.110273 249.062081 1114.190517 255.982014 L 1092.567136 230.034838 C 1102.658733 220.521217 1114.98262 213.024909 1129.542225 207.549345 C 1144.101831 202.07035 1159.745006 199.332567 1176.464893 199.332567 C 1191.168517 199.332567 1203.927889 201.421927 1214.736151 205.600648 C 1225.547841 209.782798 1234.415279 215.474503 1241.335035 222.682624 C 1248.254791 229.890745 1253.442894 238.395709 1256.902772 248.197518 C 1260.36265 258.002758 1262.090875 268.525036 1262.090875 279.767783 L 1262.090875 369.28777 C 1262.090875 376.207703 1262.306903 383.484439 1262.738959 391.124841 C 1263.174444 398.765243 1263.966547 405.036754 1265.118696 409.939374 L 1228.359635 409.939374 C 1226.055336 400.134134 1224.899757 390.332325 1224.899757 380.530516 L 1223.603589 380.530516 C 1216.107758 391.485076 1206.664245 399.990041 1195.27648 406.045411 C 1183.888715 412.100781 1170.409249 415.126751 1154.841512 415.126751 C 1146.769606 415.126751 1138.337654 414.046047 1129.542225 411.88464 C 1120.750226 409.723233 1112.750329 406.189505 1105.542536 401.290316 C 1098.334742 396.387696 1092.351108 389.900044 1087.595061 381.827361 C 1082.839015 373.754677 1080.459277 363.808774 1080.459277 351.989652 C 1080.459277 336.420661 1084.639249 324.09378 1092.999192 315.01244 C 1101.362564 305.9311 1112.318273 299.011167 1125.866319 294.256071 C 1139.417794 289.497545 1154.697494 286.399529 1171.708846 284.958591 C 1188.71677 283.517653 1205.872142 282.797184 1223.171532 282.797184 Z M 1213.223954 312.202611 C 1203.132358 312.202611 1192.684143 312.634892 1181.872453 313.499455 C 1171.060762 314.364017 1161.257203 316.093143 1152.465203 318.690262 C 1143.669775 321.28395 1136.389972 325.177914 1130.625795 330.36529 C 1124.858188 335.556098 1121.974385 342.476031 1121.974385 351.12509 C 1121.974385 357.177029 1123.201973 362.223743 1125.650291 366.258369 C 1128.102038 370.296426 1131.345888 373.610583 1135.381841 376.207703 C 1139.417794 378.801391 1143.885803 380.602563 1148.789297 381.61122 C 1153.689363 382.619877 1158.733446 383.124205 1163.924978 383.124205 C 1182.952593 383.124205 1197.584208 377.4325 1207.819824 366.042228 C 1218.05201 354.655388 1223.171532 340.311193 1223.171532 323.013076 L 1223.171532 312.202611 Z M 1425.994454 238.251616 L 1371.503946 238.251616 L 1371.503946 345.069719 C 1371.503946 357.465217 1373.811675 366.330416 1378.423703 371.665317 C 1383.03573 377.000218 1390.387543 379.665954 1400.479139 379.665954 C 1404.227055 379.665954 1408.263008 379.233672 1412.586998 378.36911 C 1416.910989 377.504547 1420.802923 376.207703 1424.262801 374.475146 L 1425.562398 407.774536 C 1420.658904 409.507093 1415.254773 410.875984 1409.343148 411.88464 C 1403.434952 412.893297 1397.307299 413.397625 1390.963618 413.397625 C 1371.647965 413.397625 1356.872331 408.062724 1346.636716 397.396352 C 1336.4011 386.729981 1331.285007 370.728707 1331.285007 349.392533 L 1331.285007 238.251616 L 1291.93018 238.251616 L 1291.93018 204.952225 L 1331.285007 204.952225 L 1331.285007 146.137941 L 1371.503946 146.137941 L 1371.503946 204.952225 L 1425.994454 204.952225 Z M 1506.079145 204.952225 L 1552.350299 361.503274 L 1553.214411 361.503274 L 1602.08476 204.952225 L 1644.896037 204.952225 L 1694.630498 361.503274 L 1695.49461 361.503274 L 1741.765765 204.952225 L 1784.58047 204.952225 L 1716.685935 409.939374 L 1674.303286 409.939374 L 1623.704712 255.982014 L 1622.8406 255.982014 L 1572.677511 409.939374 L 1530.294862 409.939374 L 1461.968271 204.952225 Z M 2032.810434 307.011803 C 2032.810434 322.868982 2030.002069 337.429317 2024.378481 350.692808 C 2018.754894 363.952868 2010.971025 375.411756 2001.026876 385.072902 C 1991.079298 394.730617 1979.331486 402.226925 1965.780011 407.558396 C 1952.228536 412.893297 1937.67236 415.559032 1922.101194 415.559032 C 1906.533457 415.559032 1891.973851 412.893297 1878.422376 407.558396 C 1864.87433 402.226925 1853.198528 394.730617 1843.394968 385.072902 C 1833.591409 375.411756 1825.87955 363.952868 1820.259391 350.692808 C 1814.635803 337.429317 1811.824009 322.868982 1811.824009 307.011803 C 1811.824009 291.154624 1814.635803 276.669766 1820.259391 263.550369 C 1825.87955 250.434403 1833.591409 239.116178 1843.394968 229.602557 C 1853.198528 220.088936 1864.87433 212.664674 1878.422376 207.333204 C 1891.973851 201.998303 1906.533457 199.332567 1922.101194 199.332567 C 1937.67236 199.332567 1952.228536 201.998303 1965.780011 207.333204 C 1979.331486 212.664674 1991.079298 220.088936 2001.026876 229.602557 C 2010.971025 239.116178 2018.754894 250.434403 2024.378481 263.550369 C 2030.002069 276.669766 2032.810434 291.154624 2032.810434 307.011803 Z M 1990.431214 307.011803 C 1990.431214 297.209994 1988.915588 287.840466 1985.891196 278.90322 C 1982.863374 269.965974 1978.467374 262.109431 1972.699767 255.333592 C 1966.932161 248.557753 1959.799806 243.154236 1951.292415 239.116178 C 1942.788453 235.081552 1933.056903 233.064239 1922.101194 233.064239 C 1911.145485 233.064239 1901.417364 235.081552 1892.909973 239.116178 C 1884.406011 243.154236 1877.270226 248.557753 1871.506049 255.333592 C 1865.738443 262.109431 1861.342443 269.965974 1858.314621 278.90322 C 1855.286799 287.840466 1853.774603 297.209994 1853.774603 307.011803 C 1853.774603 316.817043 1855.286799 326.18657 1858.314621 335.123817 C 1861.342443 344.061063 1865.738443 351.989652 1871.506049 358.909585 C 1877.270226 365.826088 1884.406011 371.305083 1892.909973 375.34314 C 1901.417364 379.377766 1911.145485 381.395079 1922.101194 381.395079 C 1933.056903 381.395079 1942.788453 379.377766 1951.292415 375.34314 C 1959.799806 371.305083 1966.932161 365.826088 1972.699767 358.909585 C 1978.467374 351.989652 1982.863374 344.061063 1985.891196 335.123817 C 1988.915588 326.18657 1990.431214 316.817043 1990.431214 307.011803 Z M 2296.611564 307.011803 C 2296.611564 322.868982 2293.79977 337.429317 2288.176182 350.692808 C 2282.556024 363.952868 2274.772155 375.411756 2264.824577 385.072902 C 2254.876999 394.730617 2243.129187 402.226925 2229.581141 407.558396 C 2216.029666 412.893297 2201.47006 415.559032 2185.902324 415.559032 C 2170.331158 415.559032 2155.774981 412.893297 2142.223506 407.558396 C 2128.672031 402.226925 2116.996229 394.730617 2107.192669 385.072902 C 2097.392539 375.411756 2089.68068 363.952868 2084.057092 350.692808 C 2078.436933 337.429317 2075.625139 322.868982 2075.625139 307.011803 C 2075.625139 291.154624 2078.436933 276.669766 2084.057092 263.550369 C 2089.68068 250.434403 2097.392539 239.116178 2107.192669 229.602557 C 2116.996229 220.088936 2128.672031 212.664674 2142.223506 207.333204 C 2155.774981 201.998303 2170.331158 199.332567 2185.902324 199.332567 C 2201.47006 199.332567 2216.029666 201.998303 2229.581141 207.333204 C 2243.129187 212.664674 2254.876999 220.088936 2264.824577 229.602557 C 2274.772155 239.116178 2282.556024 250.434403 2288.176182 263.550369 C 2293.79977 276.669766 2296.611564 291.154624 2296.611564 307.011803 Z M 2254.228915 307.011803 C 2254.228915 297.209994 2252.716718 287.840466 2249.688896 278.90322 C 2246.661074 269.965974 2242.265075 262.109431 2236.497468 255.333592 C 2230.733291 248.557753 2223.597507 243.154236 2215.093545 239.116178 C 2206.586154 235.081552 2196.858033 233.064239 2185.902324 233.064239 C 2174.946615 233.064239 2165.215064 235.081552 2156.711103 239.116178 C 2148.203712 243.154236 2141.071356 248.557753 2135.30375 255.333592 C 2129.536143 262.109431 2125.140144 269.965974 2122.112322 278.90322 C 2119.087929 287.840466 2117.572303 297.209994 2117.572303 307.011803 C 2117.572303 316.817043 2119.087929 326.18657 2122.112322 335.123817 C 2125.140144 344.061063 2129.536143 351.989652 2135.30375 358.909585 C 2141.071356 365.826088 2148.203712 371.305083 2156.711103 375.34314 C 2165.215064 379.377766 2174.946615 381.395079 2185.902324 381.395079 C 2196.858033 381.395079 2206.586154 379.377766 2215.093545 375.34314 C 2223.597507 371.305083 2230.733291 365.826088 2236.497468 358.909585 C 2242.265075 351.989652 2246.661074 344.061063 2249.688896 335.123817 C 2252.716718 326.18657 2254.228915 316.817043 2254.228915 307.011803 Z M 2453.159903 238.251616 L 2398.669395 238.251616 L 2398.669395 345.069719 C 2398.669395 357.465217 2400.977123 366.330416 2405.589151 371.665317 C 2410.204608 377.000218 2417.552991 379.665954 2427.644588 379.665954 C 2431.392503 379.665954 2435.428456 379.233672 2439.752446 378.36911 C 2444.079866 377.504547 2447.9718 376.207703 2451.431678 374.475146 L 2452.727846 407.774536 C 2447.827781 409.507093 2442.420222 410.875984 2436.512025 411.88464 C 2430.6004 412.893297 2424.472747 413.397625 2418.132495 413.397625 C 2398.813413 413.397625 2384.037779 408.062724 2373.805593 397.396352 C 2363.569977 386.729981 2358.450455 370.728707 2358.450455 349.392533 L 2358.450455 238.251616 L 2319.099057 238.251616 L 2319.099057 204.952225 L 2358.450455 204.952225 L 2358.450455 146.137941 L 2398.669395 146.137941 L 2398.669395 204.952225 L 2453.159903 204.952225 Z M 2453.159903 238.251616 " stroke="#eeeeee" stroke-width="8" stroke-opacity="1" stroke-miterlimit="4"/></g><g clip-path="url(#55daa65f89)"><path fill="#47a7f6" d="M 2943.289062 572.855469 L 2943.289062 720.175781 L 2795.902344 720.175781 C 2770.566406 720.242188 2749.972656 699.648438 2749.972656 674.25 L 2749.972656 526.929688 L 2897.296875 526.929688 C 2922.691406 526.929688 2943.289062 547.523438 2943.289062 572.855469 Z M 2943.289062 572.855469 L 2943.289062 720.175781 L 2795.902344 720.175781 C 2770.566406 720.242188 2749.972656 699.648438 2749.972656 674.25 L 2749.972656 526.929688 L 2897.296875 526.929688 C 2922.691406 526.929688 2943.289062 547.523438 2943.289062 572.855469 Z M 2943.289062 572.855469 " fill-opacity="1" fill-rule="nonzero"/><path fill="#47a7f6" d="M 2943.289062 720.898438 L 2795.902344 720.898438 C 2770.238281 720.898438 2749.316406 699.976562 2749.316406 674.25 L 2749.316406 526.929688 C 2749.316406 526.535156 2749.578125 526.269531 2749.972656 526.269531 L 2897.296875 526.269531 C 2923.023438 526.269531 2943.878906 547.195312 2943.878906 572.855469 L 2943.878906 720.175781 C 2943.945312 720.570312 2943.617188 720.898438 2943.289062 720.898438 Z M 2750.632812 527.585938 L 2750.632812 674.25 C 2750.632812 699.253906 2770.964844 719.519531 2795.902344 719.519531 L 2942.5625 719.519531 L 2942.5625 572.855469 C 2942.5625 547.851562 2922.230469 527.585938 2897.296875 527.585938 Z M 2750.632812 527.585938 " fill-opacity="1" fill-rule="nonzero"/></g><g fill="#ededed" fill-opacity="1"><g transform="translate(2943.956688, 719.88531)"><g><path d="M 70.78125 -196.234375 L 70.78125 -135.984375 L 108 -135.984375 L 108 -111.609375 L 70.78125 -111.609375 L 70.78125 0 L 39.84375 0 L 39.84375 -111.609375 L 14.8125 -111.609375 L 14.8125 -135.984375 L 39.84375 -135.984375 L 39.84375 -196.234375 Z M 70.78125 -196.234375 "/></g></g></g><g fill="#ededed" fill-opacity="1"><g transform="translate(3062.488802, 719.88531)"><g><path d="M 90.546875 -23.046875 C 101.960938 -23.046875 113.046875 -27 123.796875 -34.90625 L 137.953125 -12.1875 C 130.710938 -7.351562 122.863281 -3.5625 114.40625 -0.8125 C 105.957031 1.925781 97.785156 3.296875 89.890625 3.296875 C 74.742188 3.296875 61.515625 0.171875 50.203125 -6.078125 C 38.898438 -12.335938 30.175781 -20.957031 24.03125 -31.9375 C 17.882812 -42.914062 14.8125 -55.316406 14.8125 -69.140625 C 14.8125 -82.535156 18.160156 -94.773438 24.859375 -105.859375 C 31.554688 -116.941406 40.71875 -125.71875 52.34375 -132.1875 C 63.976562 -138.664062 76.710938 -141.90625 90.546875 -141.90625 C 108.328125 -141.90625 123.195312 -136.691406 135.15625 -126.265625 C 147.113281 -115.835938 155.289062 -101.296875 159.6875 -82.640625 L 51.6875 -44.78125 C 55.644531 -37.976562 60.96875 -32.65625 67.65625 -28.8125 C 74.351562 -24.96875 81.984375 -23.046875 90.546875 -23.046875 Z M 88.234375 -117.546875 C 75.722656 -117.546875 65.40625 -113.15625 57.28125 -104.375 C 49.164062 -95.59375 45.109375 -84.394531 45.109375 -70.78125 C 45.109375 -67.488281 45.21875 -64.96875 45.4375 -63.21875 L 124.78125 -92.515625 C 121.488281 -99.984375 116.820312 -106.019531 110.78125 -110.625 C 104.75 -115.238281 97.234375 -117.546875 88.234375 -117.546875 Z M 88.234375 -117.546875 "/></g></g></g><g fill="#ededed" fill-opacity="1"><g transform="translate(3233.701821, 719.88531)"><g><path d="M 112.9375 -141.90625 C 125.664062 -141.90625 137.1875 -138.832031 147.5 -132.6875 C 157.820312 -126.539062 165.945312 -117.925781 171.875 -106.84375 C 177.800781 -95.757812 180.765625 -82.972656 180.765625 -68.484375 C 180.765625 -54.210938 177.578125 -41.644531 171.203125 -30.78125 C 164.835938 -19.914062 156.054688 -11.519531 144.859375 -5.59375 C 133.671875 0.332031 121.160156 3.296875 107.328125 3.296875 C 97.453125 3.296875 88.015625 1.15625 79.015625 -3.125 C 70.015625 -7.40625 62.773438 -13.164062 57.296875 -20.40625 L 57.296875 65.515625 L 26.671875 65.515625 L 26.671875 -138.609375 L 53.34375 -138.609375 L 55.96875 -115.5625 C 63 -123.46875 71.394531 -129.832031 81.15625 -134.65625 C 90.925781 -139.488281 101.519531 -141.90625 112.9375 -141.90625 Z M 101.40625 -21.40625 C 109.96875 -21.40625 117.925781 -23.429688 125.28125 -27.484375 C 132.632812 -31.546875 138.503906 -37.144531 142.890625 -44.28125 C 147.285156 -51.414062 149.484375 -59.375 149.484375 -68.15625 C 149.484375 -77.15625 147.453125 -85.273438 143.390625 -92.515625 C 139.328125 -99.765625 133.78125 -105.472656 126.75 -109.640625 C 119.726562 -113.804688 111.941406 -115.890625 103.390625 -115.890625 C 91.753906 -115.890625 81.816406 -112.648438 73.578125 -106.171875 C 65.347656 -99.703125 59.921875 -90.976562 57.296875 -80 L 57.296875 -57.296875 C 59.046875 -46.753906 64.035156 -38.132812 72.265625 -31.4375 C 80.503906 -24.75 90.21875 -21.40625 101.40625 -21.40625 Z M 101.40625 -21.40625 "/></g></g></g><g fill="#ededed" fill-opacity="1"><g transform="translate(3428.950512, 719.88531)"><g><path d="M 37.859375 -108.984375 L 14.484375 -108.984375 L 14.484375 -136.640625 L 37.859375 -136.640625 L 37.859375 -193.921875 C 37.859375 -213.679688 42.359375 -228.828125 51.359375 -239.359375 C 60.359375 -249.898438 73.53125 -255.171875 90.875 -255.171875 C 95.695312 -255.171875 100.851562 -254.457031 106.34375 -253.03125 C 111.832031 -251.601562 116.660156 -249.570312 120.828125 -246.9375 L 107.671875 -224.546875 C 104.367188 -228.054688 99.757812 -229.8125 93.84375 -229.8125 C 85.5 -229.8125 79.1875 -226.957031 74.90625 -221.25 C 70.625 -215.550781 68.484375 -206.332031 68.484375 -193.59375 L 68.484375 -136.640625 L 111.9375 -136.640625 L 111.9375 -108.984375 L 68.484375 -108.984375 L 68.484375 0 L 37.859375 0 Z M 37.859375 -108.984375 "/></g></g></g><g fill="#ededed" fill-opacity="1"><g transform="translate(3554.067771, 719.88531)"><g><path d="M 156.390625 -136.3125 L 68.484375 65.515625 L 38.1875 65.515625 L 69.46875 -4.609375 L 6.25 -136.3125 L 40.828125 -136.3125 L 84.953125 -39.1875 L 128.078125 -136.3125 Z M 156.390625 -136.3125 "/></g></g></g><g fill="#ededed" fill-opacity="1"><g transform="translate(2760.091428, 709.236915)"><g><path d="M 158.96875 -197.546875 C 150.320312 -202.203125 141.117188 -205.96875 131.359375 -208.84375 C 121.609375 -211.726562 112.410156 -213.171875 103.765625 -213.171875 C 90.679688 -213.171875 80.3125 -210.234375 72.65625 -204.359375 C 65.007812 -198.484375 61.1875 -190.445312 61.1875 -180.25 C 61.1875 -170.269531 65.675781 -162.117188 74.65625 -155.796875 C 83.632812 -149.484375 96.441406 -143.222656 113.078125 -137.015625 C 125.484375 -132.578125 135.953125 -127.753906 144.484375 -122.546875 C 153.023438 -117.335938 160.125 -110.128906 165.78125 -100.921875 C 171.4375 -91.722656 174.265625 -80.03125 174.265625 -65.84375 C 174.265625 -52.988281 171.046875 -41.347656 164.609375 -30.921875 C 158.179688 -20.503906 149.035156 -12.300781 137.171875 -6.3125 C 125.316406 -0.332031 111.410156 2.65625 95.453125 2.65625 C 80.585938 2.65625 66.28125 0.273438 52.53125 -4.484375 C 38.789062 -9.253906 26.710938 -15.296875 16.296875 -22.609375 L 30.59375 -48.21875 C 38.800781 -42.007812 48.664062 -36.742188 60.1875 -32.421875 C 71.71875 -28.097656 82.472656 -25.9375 92.453125 -25.9375 C 105.304688 -25.9375 116.554688 -29.257812 126.203125 -35.90625 C 135.847656 -42.5625 140.671875 -52.429688 140.671875 -65.515625 C 140.671875 -76.597656 136.625 -85.410156 128.53125 -91.953125 C 120.4375 -98.492188 109.078125 -104.644531 94.453125 -110.40625 C 80.921875 -115.507812 69.664062 -120.5 60.6875 -125.375 C 51.707031 -130.25 44.003906 -136.953125 37.578125 -145.484375 C 31.148438 -154.023438 27.9375 -164.726562 27.9375 -177.59375 C 27.9375 -196.4375 34.53125 -211.675781 47.71875 -223.3125 C 60.914062 -234.957031 78.046875 -241.109375 99.109375 -241.765625 C 125.046875 -241.765625 149.097656 -235.335938 171.265625 -222.484375 Z M 158.96875 -197.546875 "/></g></g></g></svg>