<svg xmlns="http://www.w3.org/2000/svg" xmlns:xlink="http://www.w3.org/1999/xlink" width="5120" zoomAndPan="magnify" viewBox="0 0 3840 800.24998" height="1067" preserveAspectRatio="xMidYMid meet" version="1.0"><defs><g/><clipPath id="a4a04205a1"><path d="M 18.097656 7.171875 L 811 7.171875 L 811 799.179688 L 18.097656 799.179688 Z M 18.097656 7.171875 " clip-rule="nonzero"/></clipPath><clipPath id="abb6226aef"><path d="M 901 65 L 3821.53125 65 L 3821.53125 721 L 901 721 Z M 901 65 " clip-rule="nonzero"/></clipPath><clipPath id="0611931493"><path d="M 271 313.109375 L 504 313.109375 L 504 546 L 271 546 Z M 271 313.109375 " clip-rule="nonzero"/></clipPath><clipPath id="063726ed72"><path d="M 270.808594 313.109375 L 504.703125 313.109375 L 504.703125 547 L 270.808594 547 Z M 270.808594 313.109375 " clip-rule="nonzero"/></clipPath></defs><g clip-path="url(#a4a04205a1)"><path fill="#c0d725" d="M 810.433594 403.332031 C 810.433594 409.816406 810.273438 416.296875 809.957031 422.769531 C 809.640625 429.246094 809.160156 435.710938 808.527344 442.164062 C 807.890625 448.613281 807.097656 455.046875 806.144531 461.460938 C 805.195312 467.875 804.085938 474.261719 802.820312 480.621094 C 801.558594 486.976562 800.136719 493.300781 798.5625 499.589844 C 796.984375 505.882812 795.257812 512.128906 793.375 518.332031 C 791.492188 524.535156 789.460938 530.691406 787.277344 536.796875 C 785.089844 542.898438 782.757812 548.945312 780.277344 554.9375 C 777.796875 560.925781 775.171875 566.851562 772.398438 572.714844 C 769.625 578.574219 766.710938 584.363281 763.65625 590.082031 C 760.597656 595.800781 757.40625 601.4375 754.070312 607 C 750.738281 612.5625 747.269531 618.039062 743.667969 623.429688 C 740.066406 628.820312 736.335938 634.117188 732.472656 639.324219 C 728.609375 644.53125 724.621094 649.644531 720.507812 654.65625 C 716.394531 659.667969 712.164062 664.574219 707.808594 669.378906 C 703.453125 674.183594 698.984375 678.875 694.402344 683.460938 C 689.816406 688.046875 685.121094 692.515625 680.316406 696.867188 C 675.515625 701.222656 670.605469 705.457031 665.59375 709.570312 C 660.582031 713.683594 655.472656 717.671875 650.265625 721.53125 C 645.058594 725.394531 639.757812 729.125 634.367188 732.730469 C 628.976562 736.332031 623.5 739.796875 617.941406 743.132812 C 612.378906 746.464844 606.738281 749.660156 601.023438 752.714844 C 595.304688 755.773438 589.515625 758.6875 583.652344 761.457031 C 577.792969 764.230469 571.867188 766.855469 565.875 769.339844 C 559.886719 771.820312 553.839844 774.152344 547.734375 776.335938 C 541.628906 778.519531 535.476562 780.554688 529.273438 782.4375 C 523.066406 784.316406 516.820312 786.046875 510.53125 787.621094 C 504.242188 789.195312 497.917969 790.617188 491.558594 791.882812 C 485.199219 793.148438 478.816406 794.253906 472.402344 795.207031 C 465.988281 796.15625 459.554688 796.949219 453.101562 797.585938 C 446.652344 798.222656 440.1875 798.699219 433.710938 799.015625 C 427.234375 799.335938 420.753906 799.496094 414.273438 799.496094 C 407.789062 799.496094 401.308594 799.335938 394.832031 799.015625 C 388.359375 798.699219 381.894531 798.222656 375.441406 797.585938 C 368.988281 796.949219 362.554688 796.15625 356.144531 795.207031 C 349.730469 794.253906 343.34375 793.148438 336.984375 791.882812 C 330.625 790.617188 324.300781 789.195312 318.011719 787.621094 C 311.722656 786.046875 305.476562 784.316406 299.273438 782.433594 C 293.066406 780.554688 286.914062 778.519531 280.808594 776.335938 C 274.703125 774.152344 268.65625 771.820312 262.667969 769.339844 C 256.675781 766.855469 250.753906 764.230469 244.890625 761.457031 C 239.03125 758.6875 233.242188 755.773438 227.523438 752.714844 C 221.804688 749.660156 216.164062 746.464844 210.605469 743.132812 C 205.042969 739.796875 199.566406 736.332031 194.175781 732.730469 C 188.785156 729.125 183.488281 725.394531 178.277344 721.53125 C 173.070312 717.671875 167.960938 713.683594 162.949219 709.570312 C 157.9375 705.457031 153.03125 701.222656 148.226562 696.867188 C 143.421875 692.515625 138.726562 688.046875 134.144531 683.460938 C 129.558594 678.875 125.089844 674.183594 120.734375 669.378906 C 116.382812 664.574219 112.148438 659.667969 108.035156 654.65625 C 103.921875 649.644531 99.933594 644.53125 96.070312 639.324219 C 92.210938 634.117188 88.476562 628.820312 84.875 623.429688 C 81.273438 618.039062 77.804688 612.5625 74.472656 607 C 71.140625 601.4375 67.945312 595.800781 64.886719 590.082031 C 61.832031 584.363281 58.917969 578.574219 56.144531 572.714844 C 53.375 566.851562 50.746094 560.925781 48.265625 554.9375 C 45.785156 548.945312 43.453125 542.898438 41.269531 536.796875 C 39.085938 530.691406 37.050781 524.535156 35.167969 518.332031 C 33.285156 512.128906 31.558594 505.882812 29.984375 499.589844 C 28.40625 493.300781 26.988281 486.976562 25.722656 480.621094 C 24.457031 474.261719 23.347656 467.875 22.398438 461.460938 C 21.445312 455.046875 20.652344 448.613281 20.019531 442.164062 C 19.382812 435.710938 18.90625 429.246094 18.585938 422.769531 C 18.269531 416.296875 18.109375 409.816406 18.109375 403.332031 C 18.109375 396.847656 18.269531 390.371094 18.585938 383.894531 C 18.90625 377.417969 19.382812 370.953125 20.019531 364.5 C 20.652344 358.050781 21.445312 351.617188 22.398438 345.203125 C 23.347656 338.789062 24.457031 332.402344 25.722656 326.042969 C 26.988281 319.6875 28.40625 313.363281 29.984375 307.074219 C 31.558594 300.785156 33.285156 294.535156 35.167969 288.332031 C 37.050781 282.128906 39.085938 275.972656 41.269531 269.871094 C 43.453125 263.765625 45.785156 257.71875 48.265625 251.726562 C 50.746094 245.738281 53.375 239.8125 56.144531 233.953125 C 58.917969 228.089844 61.832031 222.300781 64.886719 216.582031 C 67.945312 210.863281 71.140625 205.226562 74.472656 199.664062 C 77.804688 194.101562 81.273438 188.628906 84.875 183.238281 C 88.476562 177.84375 92.210938 172.546875 96.070312 167.339844 C 99.933594 162.132812 103.921875 157.023438 108.035156 152.011719 C 112.148438 146.996094 116.382812 142.089844 120.734375 137.285156 C 125.089844 132.480469 129.558594 127.789062 134.144531 123.203125 C 138.726562 118.617188 143.421875 114.148438 148.226562 109.796875 C 153.03125 105.441406 157.9375 101.207031 162.949219 97.09375 C 167.960938 92.980469 173.070312 88.996094 178.277344 85.132812 C 183.488281 81.269531 188.785156 77.539062 194.175781 73.9375 C 199.566406 70.332031 205.042969 66.867188 210.605469 63.53125 C 216.164062 60.199219 221.804688 57.003906 227.523438 53.949219 C 233.242188 50.890625 239.03125 47.976562 244.890625 45.207031 C 250.753906 42.433594 256.675781 39.808594 262.667969 37.328125 C 268.65625 34.84375 274.703125 32.511719 280.808594 30.328125 C 286.914062 28.144531 293.066406 26.109375 299.273438 24.230469 C 305.476562 22.347656 311.722656 20.617188 318.011719 19.042969 C 324.300781 17.46875 330.625 16.046875 336.984375 14.78125 C 343.34375 13.519531 349.730469 12.410156 356.144531 11.457031 C 362.554688 10.507812 368.988281 9.714844 375.441406 9.078125 C 381.894531 8.441406 388.359375 7.964844 394.832031 7.648438 C 401.308594 7.328125 407.789062 7.171875 414.273438 7.171875 C 420.753906 7.171875 427.234375 7.328125 433.710938 7.648438 C 440.1875 7.964844 446.652344 8.441406 453.101562 9.078125 C 459.554688 9.714844 465.988281 10.507812 472.402344 11.457031 C 478.816406 12.410156 485.199219 13.519531 491.558594 14.78125 C 497.917969 16.046875 504.242188 17.46875 510.53125 19.042969 C 516.820312 20.617188 523.066406 22.347656 529.273438 24.230469 C 535.476562 26.109375 541.628906 28.144531 547.734375 30.328125 C 553.839844 32.511719 559.886719 34.84375 565.875 37.328125 C 571.867188 39.808594 577.792969 42.433594 583.652344 45.207031 C 589.515625 47.976562 595.304688 50.890625 601.023438 53.949219 C 606.738281 57.003906 612.378906 60.199219 617.941406 63.53125 C 623.5 66.867188 628.976562 70.332031 634.367188 73.9375 C 639.757812 77.539062 645.058594 81.269531 650.265625 85.132812 C 655.472656 88.996094 660.582031 92.980469 665.59375 97.09375 C 670.605469 101.207031 675.515625 105.441406 680.316406 109.796875 C 685.121094 114.148438 689.816406 118.617188 694.402344 123.203125 C 698.984375 127.789062 703.453125 132.480469 707.808594 137.285156 C 712.164062 142.089844 716.394531 146.996094 720.507812 152.011719 C 724.621094 157.023438 728.609375 162.132812 732.472656 167.339844 C 736.335938 172.546875 740.066406 177.84375 743.667969 183.238281 C 747.269531 188.628906 750.738281 194.101562 754.070312 199.664062 C 757.40625 205.226562 760.597656 210.863281 763.65625 216.582031 C 766.710938 222.300781 769.625 228.089844 772.398438 233.953125 C 775.171875 239.8125 777.796875 245.738281 780.277344 251.726562 C 782.757812 257.71875 785.089844 263.765625 787.277344 269.871094 C 789.460938 275.972656 791.492188 282.128906 793.375 288.332031 C 795.257812 294.535156 796.984375 300.785156 798.5625 307.074219 C 800.136719 313.363281 801.558594 319.6875 802.820312 326.042969 C 804.085938 332.402344 805.195312 338.789062 806.144531 345.203125 C 807.097656 351.617188 807.890625 358.050781 808.527344 364.5 C 809.160156 370.953125 809.636719 377.417969 809.957031 383.894531 C 810.273438 390.371094 810.433594 396.847656 810.433594 403.332031 Z M 810.433594 403.332031 " fill-opacity="1" fill-rule="nonzero"/></g><path stroke-linecap="butt" transform="matrix(1.547507, 0, 0, 1.547507, 18.110246, 7.170386)" fill-opacity="1" fill="#ffffff" fill-rule="nonzero" stroke-linejoin="miter" d="M 362.808188 368.807261 L 244.12186 368.807261 C 178.69911 368.807261 125.455725 315.561352 125.455725 250.120933 C 125.455725 184.703232 178.69911 131.457323 244.124384 131.457323 C 309.564803 131.457323 362.808188 184.703232 362.808188 250.120933 Z M 362.808188 368.807261 " stroke="#ffffff" stroke-width="6" stroke-opacity="1" stroke-miterlimit="4"/><path fill="#273444" d="M 1214.304688 404.644531 C 1207.613281 394.382812 1197.574219 385.792969 1184.191406 378.878906 C 1170.804688 371.964844 1156.527344 368.507812 1141.359375 368.507812 C 1124.851562 368.507812 1110.242188 371.628906 1097.523438 377.875 C 1084.808594 384.121094 1073.992188 392.488281 1065.066406 402.972656 C 1056.144531 413.457031 1049.339844 425.613281 1044.65625 439.445312 C 1039.972656 453.277344 1037.628906 467.773438 1037.628906 482.945312 C 1037.628906 498.113281 1039.972656 512.613281 1044.65625 526.445312 C 1049.339844 540.277344 1056.144531 552.433594 1065.066406 562.917969 C 1073.992188 573.402344 1084.921875 581.769531 1097.859375 588.015625 C 1110.796875 594.261719 1125.519531 597.382812 1142.027344 597.382812 C 1158.089844 597.382812 1172.703125 594.261719 1185.863281 588.015625 C 1199.023438 581.769531 1209.84375 573.289062 1218.320312 562.582031 L 1260.484375 600.730469 C 1247.097656 616.34375 1230.367188 628.503906 1210.289062 637.203125 C 1190.214844 645.902344 1167.460938 650.253906 1142.027344 650.253906 C 1117.488281 650.253906 1094.847656 646.238281 1074.101562 638.207031 C 1053.355469 630.175781 1035.398438 618.910156 1020.230469 604.410156 C 1005.058594 589.910156 993.125 572.398438 984.425781 551.875 C 975.726562 531.351562 971.375 508.375 971.375 482.945312 C 971.375 457.960938 975.613281 435.207031 984.089844 414.683594 C 992.566406 394.160156 1004.390625 376.535156 1019.558594 361.8125 C 1034.730469 347.089844 1052.6875 335.714844 1073.433594 327.683594 C 1094.179688 319.652344 1116.597656 315.636719 1140.691406 315.636719 C 1163 315.636719 1185.195312 320.097656 1207.277344 329.019531 C 1229.363281 337.945312 1246.875 350.882812 1259.8125 367.835938 Z M 1388.304688 372.519531 C 1395.890625 356.90625 1408.828125 343.519531 1427.121094 332.367188 C 1445.414062 321.214844 1465.9375 315.636719 1488.691406 315.636719 C 1509.214844 315.636719 1526.835938 319.09375 1541.558594 326.011719 C 1556.285156 332.925781 1568.550781 342.183594 1578.367188 353.78125 C 1588.183594 365.382812 1595.433594 378.992188 1600.117188 394.605469 C 1604.800781 410.222656 1607.144531 426.953125 1607.144531 444.796875 L 1607.144531 641.550781 L 1544.238281 641.550781 L 1544.238281 466.214844 C 1544.238281 453.273438 1543.234375 441.007812 1541.226562 429.40625 C 1539.21875 417.804688 1535.535156 407.542969 1530.183594 398.621094 C 1524.828125 389.699219 1517.578125 382.558594 1508.433594 377.207031 C 1499.285156 371.851562 1487.351562 369.175781 1472.628906 369.175781 C 1447.644531 369.175781 1427.121094 378.65625 1411.058594 397.617188 C 1395 416.578125 1386.96875 441.898438 1386.96875 473.574219 L 1386.96875 641.550781 L 1324.058594 641.550781 L 1324.058594 135.613281 L 1386.96875 135.613281 L 1386.96875 372.519531 Z M 1910.976562 436.097656 C 1910.976562 412.453125 1903.835938 394.941406 1889.558594 383.5625 C 1875.285156 372.1875 1856.320312 366.5 1832.675781 366.5 C 1814.828125 366.5 1797.988281 369.957031 1782.148438 376.871094 C 1766.308594 383.785156 1753.039062 392.597656 1742.328125 403.304688 L 1708.867188 363.152344 C 1724.484375 348.429688 1743.554688 336.828125 1766.085938 328.351562 C 1788.617188 319.875 1812.820312 315.636719 1838.699219 315.636719 C 1861.453125 315.636719 1881.195312 318.871094 1897.925781 325.339844 C 1914.65625 331.808594 1928.375 340.621094 1939.082031 351.773438 C 1949.792969 362.929688 1957.820312 376.089844 1963.175781 391.261719 C 1968.53125 406.429688 1971.207031 422.714844 1971.207031 440.113281 L 1971.207031 578.644531 C 1971.207031 589.351562 1971.542969 600.617188 1972.210938 612.441406 C 1972.878906 624.265625 1974.105469 633.96875 1975.890625 641.550781 L 1919.007812 641.550781 C 1915.4375 626.382812 1913.652344 611.214844 1913.652344 596.042969 L 1911.644531 596.042969 C 1900.046875 613 1885.433594 626.160156 1867.808594 635.53125 C 1850.1875 644.898438 1829.328125 649.582031 1805.238281 649.582031 C 1792.746094 649.582031 1779.695312 647.910156 1766.085938 644.5625 C 1752.480469 641.21875 1740.097656 635.753906 1728.945312 628.167969 C 1717.789062 620.582031 1708.535156 610.542969 1701.171875 598.050781 C 1693.808594 585.558594 1690.128906 570.167969 1690.128906 551.875 C 1690.128906 527.78125 1696.597656 508.710938 1709.539062 494.65625 C 1722.476562 480.601562 1739.429688 469.894531 1760.398438 462.53125 C 1781.367188 455.171875 1805.015625 450.375 1831.335938 448.144531 C 1857.660156 445.914062 1884.207031 444.796875 1910.976562 444.796875 Z M 1895.582031 490.304688 C 1879.96875 490.304688 1863.796875 490.976562 1847.0625 492.3125 C 1830.332031 493.652344 1815.164062 496.328125 1801.554688 500.34375 C 1787.949219 504.359375 1776.683594 510.382812 1767.761719 518.414062 C 1758.835938 526.445312 1754.375 537.152344 1754.375 550.535156 C 1754.375 559.90625 1756.273438 567.714844 1760.0625 573.960938 C 1763.855469 580.207031 1768.875 585.335938 1775.121094 589.351562 C 1781.367188 593.367188 1788.285156 596.15625 1795.867188 597.71875 C 1803.453125 599.28125 1811.261719 600.058594 1819.292969 600.058594 C 1848.738281 600.058594 1871.378906 591.25 1887.21875 573.625 C 1903.058594 556.003906 1910.976562 533.804688 1910.976562 507.035156 L 1910.976562 490.304688 Z M 2224.84375 375.867188 L 2140.523438 375.867188 L 2140.523438 541.167969 C 2140.523438 560.351562 2144.089844 574.070312 2151.230469 582.324219 C 2158.367188 590.578125 2169.746094 594.707031 2185.359375 594.707031 C 2191.160156 594.707031 2197.40625 594.035156 2204.097656 592.699219 C 2210.792969 591.359375 2216.816406 589.351562 2222.167969 586.675781 L 2224.175781 638.207031 C 2216.589844 640.882812 2208.226562 643.003906 2199.082031 644.5625 C 2189.933594 646.125 2180.453125 646.90625 2170.636719 646.90625 C 2140.746094 646.90625 2117.878906 638.652344 2102.042969 622.144531 C 2086.203125 605.636719 2078.285156 580.875 2078.285156 547.859375 L 2078.285156 375.867188 L 2017.382812 375.867188 L 2017.382812 324.335938 L 2078.285156 324.335938 L 2078.285156 233.320312 L 2140.523438 233.320312 L 2140.523438 324.335938 L 2224.84375 324.335938 Z M 2348.777344 324.335938 L 2420.382812 566.597656 L 2421.722656 566.597656 L 2497.347656 324.335938 L 2563.601562 324.335938 L 2640.5625 566.597656 L 2641.898438 566.597656 L 2713.507812 324.335938 L 2779.761719 324.335938 L 2674.691406 641.550781 L 2609.109375 641.550781 L 2530.808594 403.304688 L 2529.46875 403.304688 L 2451.839844 641.550781 L 2386.253906 641.550781 L 2280.515625 324.335938 Z M 3163.902344 482.277344 C 3163.902344 506.8125 3159.550781 529.34375 3150.851562 549.867188 C 3142.152344 570.390625 3130.105469 588.125 3114.710938 603.070312 C 3099.320312 618.019531 3081.140625 629.617188 3060.167969 637.871094 C 3039.199219 646.125 3016.671875 650.253906 2992.578125 650.253906 C 2968.484375 650.253906 2945.953125 646.125 2924.984375 637.871094 C 2904.015625 629.617188 2885.945312 618.019531 2870.777344 603.070312 C 2855.609375 588.125 2843.671875 570.390625 2834.972656 549.867188 C 2826.273438 529.34375 2821.921875 506.8125 2821.921875 482.277344 C 2821.921875 457.738281 2826.273438 435.316406 2834.972656 415.019531 C 2843.671875 394.71875 2855.609375 377.207031 2870.777344 362.484375 C 2885.945312 347.761719 2904.015625 336.269531 2924.984375 328.015625 C 2945.953125 319.761719 2968.484375 315.636719 2992.578125 315.636719 C 3016.671875 315.636719 3039.199219 319.761719 3060.167969 328.015625 C 3081.140625 336.269531 3099.320312 347.761719 3114.710938 362.484375 C 3130.105469 377.207031 3142.152344 394.71875 3150.851562 415.019531 C 3159.550781 435.316406 3163.902344 457.738281 3163.902344 482.277344 Z M 3098.316406 482.277344 C 3098.316406 467.105469 3095.972656 452.605469 3091.289062 438.773438 C 3086.605469 424.945312 3079.800781 412.785156 3070.878906 402.300781 C 3061.953125 391.816406 3050.914062 383.453125 3037.75 377.207031 C 3024.589844 370.960938 3009.53125 367.835938 2992.578125 367.835938 C 2975.625 367.835938 2960.566406 370.960938 2947.40625 377.207031 C 2934.242188 383.453125 2923.199219 391.816406 2914.277344 402.300781 C 2905.355469 412.785156 2898.550781 424.945312 2893.867188 438.773438 C 2889.179688 452.605469 2886.839844 467.105469 2886.839844 482.277344 C 2886.839844 497.445312 2889.179688 511.945312 2893.867188 525.777344 C 2898.550781 539.605469 2905.355469 551.875 2914.277344 562.582031 C 2923.199219 573.289062 2934.242188 581.769531 2947.40625 588.015625 C 2960.566406 594.261719 2975.625 597.382812 2992.578125 597.382812 C 3009.53125 597.382812 3024.589844 594.261719 3037.75 588.015625 C 3050.914062 581.769531 3061.953125 573.289062 3070.878906 562.582031 C 3079.800781 551.875 3086.605469 539.605469 3091.289062 525.777344 C 3095.972656 511.945312 3098.316406 497.445312 3098.316406 482.277344 Z M 3572.132812 482.277344 C 3572.132812 506.8125 3567.78125 529.34375 3559.082031 549.867188 C 3550.382812 570.390625 3538.335938 588.125 3522.945312 603.070312 C 3507.550781 618.019531 3489.371094 629.617188 3468.402344 637.871094 C 3447.429688 646.125 3424.902344 650.253906 3400.808594 650.253906 C 3376.714844 650.253906 3354.183594 646.125 3333.214844 637.871094 C 3312.246094 629.617188 3294.175781 618.019531 3279.007812 603.070312 C 3263.839844 588.125 3251.90625 570.390625 3243.203125 549.867188 C 3234.503906 529.34375 3230.15625 506.8125 3230.15625 482.277344 C 3230.15625 457.738281 3234.503906 435.316406 3243.203125 415.019531 C 3251.90625 394.71875 3263.839844 377.207031 3279.007812 362.484375 C 3294.175781 347.761719 3312.246094 336.269531 3333.214844 328.015625 C 3354.183594 319.761719 3376.714844 315.636719 3400.808594 315.636719 C 3424.902344 315.636719 3447.429688 319.761719 3468.402344 328.015625 C 3489.371094 336.269531 3507.550781 347.761719 3522.945312 362.484375 C 3538.335938 377.207031 3550.382812 394.71875 3559.082031 415.019531 C 3567.78125 435.316406 3572.132812 457.738281 3572.132812 482.277344 Z M 3506.546875 482.277344 C 3506.546875 467.105469 3504.203125 452.605469 3499.519531 438.773438 C 3494.835938 424.945312 3488.03125 412.785156 3479.109375 402.300781 C 3470.1875 391.816406 3459.144531 383.453125 3445.980469 377.207031 C 3432.820312 370.960938 3417.761719 367.835938 3400.808594 367.835938 C 3383.855469 367.835938 3368.796875 370.960938 3355.636719 377.207031 C 3342.472656 383.453125 3331.429688 391.816406 3322.507812 402.300781 C 3313.585938 412.785156 3306.78125 424.945312 3302.097656 438.773438 C 3297.414062 452.605469 3295.070312 467.105469 3295.070312 482.277344 C 3295.070312 497.445312 3297.414062 511.945312 3302.097656 525.777344 C 3306.78125 539.605469 3313.585938 551.875 3322.507812 562.582031 C 3331.429688 573.289062 3342.472656 581.769531 3355.636719 588.015625 C 3368.796875 594.261719 3383.855469 597.382812 3400.808594 597.382812 C 3417.761719 597.382812 3432.820312 594.261719 3445.980469 588.015625 C 3459.144531 581.769531 3470.1875 573.289062 3479.109375 562.582031 C 3488.03125 551.875 3494.835938 539.605469 3499.519531 525.777344 C 3504.203125 511.945312 3506.546875 497.445312 3506.546875 482.277344 Z M 3814.394531 375.867188 L 3730.070312 375.867188 L 3730.070312 541.167969 C 3730.070312 560.351562 3733.640625 574.070312 3740.777344 582.324219 C 3747.917969 590.578125 3759.292969 594.707031 3774.910156 594.707031 C 3780.710938 594.707031 3786.957031 594.035156 3793.648438 592.699219 C 3800.339844 591.359375 3806.363281 589.351562 3811.71875 586.675781 L 3813.726562 638.207031 C 3806.140625 640.882812 3797.773438 643.003906 3788.628906 644.5625 C 3779.480469 646.125 3770 646.90625 3760.1875 646.90625 C 3730.292969 646.90625 3707.429688 638.652344 3691.589844 622.144531 C 3675.75 605.636719 3667.832031 580.875 3667.832031 547.859375 L 3667.832031 375.867188 L 3606.933594 375.867188 L 3606.933594 324.335938 L 3667.832031 324.335938 L 3667.832031 233.320312 L 3730.070312 233.320312 L 3730.070312 324.335938 L 3814.394531 324.335938 Z M 3814.394531 375.867188 " fill-opacity="1" fill-rule="nonzero"/><g clip-path="url(#abb6226aef)"><path stroke-linecap="butt" transform="matrix(1.547507, 0, 0, 1.547507, 18.110246, 7.170386)" fill="none" stroke-linejoin="miter" d="M 772.981414 256.847981 C 768.657424 250.216853 762.170177 244.666092 753.522198 240.198222 C 744.871694 235.730351 735.645667 233.496416 725.844119 233.496416 C 715.176763 233.496416 705.736178 235.513268 697.517315 239.549497 C 689.300977 243.585726 682.31141 248.992606 676.543566 255.767615 C 670.778246 262.542623 666.381054 270.397997 663.354514 279.336262 C 660.327973 288.274527 658.813441 297.64191 658.813441 307.445983 C 658.813441 317.247531 660.327973 326.617438 663.354514 335.555703 C 666.381054 344.493969 670.778246 352.349343 676.543566 359.124351 C 682.31141 365.899359 689.37418 371.30624 697.734398 375.342469 C 706.094617 379.378697 715.608404 381.395549 726.275761 381.395549 C 736.655356 381.395549 746.098465 379.378697 754.602564 375.342469 C 763.106663 371.30624 770.098754 365.826157 775.576313 358.907268 L 802.82275 383.558807 C 794.172246 393.648116 783.361009 401.506015 770.386515 407.127454 C 757.414546 412.748894 742.710961 415.560875 726.275761 415.560875 C 710.418607 415.560875 695.788224 412.965977 682.382089 407.776179 C 668.975953 402.586381 657.372111 395.306529 647.570562 385.936622 C 637.766489 376.566715 630.054996 365.250635 624.433556 351.98838 C 618.812117 338.726124 616.000135 323.878659 616.000135 307.445983 C 616.000135 291.301068 618.738915 276.597483 624.216473 263.335228 C 629.694032 250.072973 637.334848 238.68369 647.136396 229.169902 C 656.940469 219.656115 668.544311 212.305584 681.950447 207.115787 C 695.356582 201.925989 709.843084 199.33109 725.412477 199.33109 C 739.828301 199.33109 754.170922 202.21375 768.440341 207.97907 C 782.712285 213.746914 794.028366 222.107133 802.388584 233.06225 Z M 885.420297 236.088791 C 890.322333 225.999481 898.682552 217.348977 910.503477 210.142327 C 922.324402 202.935677 935.586657 199.33109 950.290242 199.33109 C 963.552497 199.33109 974.939256 201.565026 984.453043 206.03542 C 993.969355 210.503291 1001.895408 216.485694 1008.238774 223.980105 C 1014.58214 231.47704 1019.267094 240.271424 1022.293634 250.360734 C 1025.320175 260.452568 1026.834707 271.263805 1026.834707 282.794444 L 1026.834707 409.936912 L 986.184659 409.936912 L 986.184659 296.634746 C 986.184659 288.272003 985.535934 280.34595 984.238485 272.849015 C 982.941035 265.35208 980.560695 258.720953 977.102513 252.955633 C 973.641807 247.190313 968.956853 242.576038 963.047653 239.117855 C 957.135928 235.657149 949.424434 233.928058 939.910647 233.928058 C 923.765732 233.928058 910.503477 240.054341 900.123882 252.306908 C 889.746811 264.559475 884.557013 280.921473 884.557013 301.390378 L 884.557013 409.936912 L 843.90444 409.936912 L 843.90444 82.99986 L 884.557013 82.99986 L 884.557013 236.088791 Z M 1223.17111 277.173005 C 1223.17111 261.893898 1218.556834 250.577817 1209.330808 243.224762 C 1200.107306 235.874232 1187.852215 232.198967 1172.573108 232.198967 C 1161.039944 232.198967 1150.158029 234.432902 1139.922314 238.900772 C 1129.6866 243.368643 1121.111822 249.063285 1114.19041 255.982173 L 1092.567936 230.03571 C 1102.65977 220.521922 1114.983015 213.024987 1129.542719 207.547428 C 1144.102424 202.06987 1159.742494 199.33109 1176.465456 199.33109 C 1191.169041 199.33109 1203.926452 201.421145 1214.737689 205.601254 C 1225.548925 209.781364 1234.413988 215.476005 1241.332877 222.682655 C 1248.25429 229.891829 1253.441563 238.395928 1256.90227 248.200001 C 1260.362976 258.00155 1262.092067 268.525025 1262.092067 279.767904 L 1262.092067 369.286863 C 1262.092067 376.205752 1262.30915 383.485604 1262.740792 391.12642 C 1263.172433 398.767236 1263.965039 405.0374 1265.118608 409.936912 L 1228.360907 409.936912 C 1226.05377 400.135363 1224.900201 390.333815 1224.900201 380.529742 L 1223.602751 380.529742 C 1216.10834 391.487383 1206.665231 399.991483 1195.275948 406.047088 C 1183.889189 412.100169 1170.409851 415.126709 1154.842982 415.126709 C 1146.770525 415.126709 1138.337104 414.046343 1129.542719 411.883086 C 1120.750859 409.722353 1112.74908 406.190968 1105.54243 401.288932 C 1098.333256 396.386896 1092.353377 389.899649 1087.595221 381.827191 C 1082.837065 373.754734 1080.45925 363.809305 1080.45925 351.98838 C 1080.45925 336.418987 1084.639359 324.095742 1093.002102 315.013596 C 1101.36232 305.93145 1112.317438 299.012562 1125.867454 294.254406 C 1139.41747 289.498774 1154.699102 286.399031 1171.7073 284.957702 C 1188.718023 283.516372 1205.872626 282.794444 1223.17111 282.794444 Z M 1213.223156 312.201614 C 1203.133847 312.201614 1192.683573 312.63578 1181.869812 313.499064 C 1171.058575 314.364871 1161.257027 316.093963 1152.462642 318.688861 C 1143.670782 321.28376 1136.39093 325.176108 1130.62561 330.365906 C 1124.857766 335.555703 1121.975106 342.474592 1121.975106 351.122572 C 1121.975106 357.178177 1123.201877 362.224094 1125.650371 366.260323 C 1128.101389 370.296552 1131.345013 373.610853 1135.381241 376.205752 C 1139.41747 378.800651 1143.887865 380.602944 1148.787377 381.612632 C 1153.689413 382.622321 1158.73533 383.124641 1163.925128 383.124641 C 1182.952703 383.124641 1197.583085 377.432523 1207.8188 366.04324 C 1218.054514 354.656481 1223.17111 340.311335 1223.17111 323.012851 L 1223.17111 312.201614 Z M 1425.992235 238.252048 L 1371.504409 238.252048 L 1371.504409 345.069491 C 1371.504409 357.465938 1373.809022 366.331001 1378.423298 371.664679 C 1383.035049 376.998357 1390.388103 379.666458 1400.477413 379.666458 C 1404.225881 379.666458 1408.262109 379.232292 1412.586099 378.369009 C 1416.912613 377.503201 1420.804961 376.205752 1424.263144 374.476661 L 1425.560593 407.776179 C 1420.658557 409.50527 1415.2542 410.875922 1409.345 411.883086 C 1403.433275 412.892774 1397.306992 413.397618 1390.963626 413.397618 C 1371.648289 413.397618 1356.871502 408.06394 1346.638312 397.396584 C 1336.402597 386.729228 1331.286002 370.728193 1331.286002 349.393481 L 1331.286002 238.252048 L 1291.930879 238.252048 L 1291.930879 204.95253 L 1331.286002 204.95253 L 1331.286002 146.13819 L 1371.504409 146.13819 L 1371.504409 204.95253 L 1425.992235 204.95253 Z M 1506.078182 204.95253 L 1552.34967 361.502167 L 1553.215477 361.502167 L 1602.084388 204.95253 L 1644.897694 204.95253 L 1694.629888 361.502167 L 1695.493171 361.502167 L 1741.767183 204.95253 L 1784.580489 204.95253 L 1716.684003 409.936912 L 1674.304864 409.936912 L 1623.706862 255.982173 L 1622.841054 255.982173 L 1572.677218 409.936912 L 1530.295554 409.936912 L 1461.967427 204.95253 Z M 2032.812343 307.014341 C 2032.812343 322.868971 2030.000361 337.428675 2024.378921 350.69093 C 2018.757482 363.953185 2010.972786 375.413147 2001.024833 385.070815 C 1991.079403 394.731007 1979.331681 402.225418 1965.77914 407.559096 C 1952.229124 412.892774 1937.671944 415.560875 1922.102551 415.560875 C 1906.533159 415.560875 1891.973454 412.892774 1878.423438 407.559096 C 1864.873422 402.225418 1853.196377 394.731007 1843.394829 385.070815 C 1833.59328 375.413147 1825.879262 363.953185 1820.257823 350.69093 C 1814.636383 337.428675 1811.824402 322.868971 1811.824402 307.014341 C 1811.824402 291.157187 1814.636383 276.668161 1820.257823 263.552311 C 1825.879262 250.433936 1833.59328 239.117855 1843.394829 229.604068 C 1853.196377 220.090281 1864.873422 212.664024 1878.423438 207.330345 C 1891.973454 201.996667 1906.533159 199.33109 1922.102551 199.33109 C 1937.671944 199.33109 1952.229124 201.996667 1965.77914 207.330345 C 1979.331681 212.664024 1991.079403 220.090281 2001.024833 229.604068 C 2010.972786 239.117855 2018.757482 250.433936 2024.378921 263.552311 C 2030.000361 276.668161 2032.812343 291.157187 2032.812343 307.014341 Z M 1990.430679 307.014341 C 1990.430679 297.210268 1988.916146 287.840361 1985.889606 278.902096 C 1982.863065 269.966355 1978.465873 262.108457 1972.700553 255.333449 C 1966.932709 248.55844 1959.799262 243.154084 1951.292638 239.117855 C 1942.788539 235.081627 1933.057669 233.06225 1922.102551 233.06225 C 1911.147434 233.06225 1901.416563 235.081627 1892.912464 239.117855 C 1884.405841 243.154084 1877.269869 248.55844 1871.504549 255.333449 C 1865.73923 262.108457 1861.342037 269.966355 1858.315497 278.902096 C 1855.286432 287.840361 1853.774424 297.210268 1853.774424 307.014341 C 1853.774424 316.81589 1855.286432 326.185797 1858.315497 335.124062 C 1861.342037 344.059803 1865.73923 351.98838 1871.504549 358.907268 C 1877.269869 365.826157 1884.405841 371.30624 1892.912464 375.342469 C 1901.416563 379.378697 1911.147434 381.395549 1922.102551 381.395549 C 1933.057669 381.395549 1942.788539 379.378697 1951.292638 375.342469 C 1959.799262 371.30624 1966.932709 365.826157 1972.700553 358.907268 C 1978.465873 351.98838 1982.863065 344.059803 1985.889606 335.124062 C 1988.916146 326.185797 1990.430679 316.81589 1990.430679 307.014341 Z M 2296.611065 307.014341 C 2296.611065 322.868971 2293.799083 337.428675 2288.177644 350.69093 C 2282.556204 363.953185 2274.771508 375.413147 2264.826079 385.070815 C 2254.878125 394.731007 2243.130403 402.225418 2229.580387 407.559096 C 2216.027846 412.892774 2201.470666 415.560875 2185.901273 415.560875 C 2170.331881 415.560875 2155.772176 412.892774 2142.22216 407.559096 C 2128.672144 402.225418 2116.995099 394.731007 2107.193551 385.070815 C 2097.392002 375.413147 2089.680508 363.953185 2084.056545 350.69093 C 2078.435106 337.428675 2075.625648 322.868971 2075.625648 307.014341 C 2075.625648 291.157187 2078.435106 276.668161 2084.056545 263.552311 C 2089.680508 250.433936 2097.392002 239.117855 2107.193551 229.604068 C 2116.995099 220.090281 2128.672144 212.664024 2142.22216 207.330345 C 2155.772176 201.996667 2170.331881 199.33109 2185.901273 199.33109 C 2201.470666 199.33109 2216.027846 201.996667 2229.580387 207.330345 C 2243.130403 212.664024 2254.878125 220.090281 2264.826079 229.604068 C 2274.771508 239.117855 2282.556204 250.433936 2288.177644 263.552311 C 2293.799083 276.668161 2296.611065 291.157187 2296.611065 307.014341 Z M 2254.229401 307.014341 C 2254.229401 297.210268 2252.714868 287.840361 2249.688328 278.902096 C 2246.661787 269.966355 2242.264595 262.108457 2236.499275 255.333449 C 2230.733955 248.55844 2223.597984 243.154084 2215.09136 239.117855 C 2206.587261 235.081627 2196.856391 233.06225 2185.901273 233.06225 C 2174.946156 233.06225 2165.215286 235.081627 2156.711186 239.117855 C 2148.204563 243.154084 2141.068591 248.55844 2135.303271 255.333449 C 2129.537952 262.108457 2125.140759 269.966355 2122.114219 278.902096 C 2119.087678 287.840361 2117.573146 297.210268 2117.573146 307.014341 C 2117.573146 316.81589 2119.087678 326.185797 2122.114219 335.124062 C 2125.140759 344.059803 2129.537952 351.98838 2135.303271 358.907268 C 2141.068591 365.826157 2148.204563 371.30624 2156.711186 375.342469 C 2165.215286 379.378697 2174.946156 381.395549 2185.901273 381.395549 C 2196.856391 381.395549 2206.587261 379.378697 2215.09136 375.342469 C 2223.597984 371.30624 2230.733955 365.826157 2236.499275 358.907268 C 2242.264595 351.98838 2246.661787 344.059803 2249.688328 335.124062 C 2252.714868 326.185797 2254.229401 316.81589 2254.229401 307.014341 Z M 2453.160702 238.252048 L 2398.670352 238.252048 L 2398.670352 345.069491 C 2398.670352 357.465938 2400.97749 366.331001 2405.589241 371.664679 C 2410.203516 376.998357 2417.554046 379.666458 2427.64588 379.666458 C 2431.394348 379.666458 2435.430576 379.232292 2439.754566 378.369009 C 2444.078556 377.503201 2447.970904 376.205752 2451.431611 374.476661 L 2452.72906 407.776179 C 2447.827024 409.50527 2442.420143 410.875922 2436.510943 411.883086 C 2430.599218 412.892774 2424.472935 413.397618 2418.132093 413.397618 C 2398.814232 413.397618 2384.039969 408.06394 2373.804255 397.396584 C 2363.56854 386.729228 2358.451945 370.728193 2358.451945 349.393481 L 2358.451945 238.252048 L 2319.099346 238.252048 L 2319.099346 204.95253 L 2358.451945 204.95253 L 2358.451945 146.13819 L 2398.670352 146.13819 L 2398.670352 204.95253 L 2453.160702 204.95253 Z M 2453.160702 238.252048 " stroke="#273445" stroke-width="8" stroke-opacity="1" stroke-miterlimit="4"/></g><g clip-path="url(#0611931493)"><path fill="#c0d725" d="M 503.320312 368.949219 L 503.320312 545.542969 L 326.648438 545.542969 C 296.28125 545.621094 271.597656 520.933594 271.597656 490.488281 L 271.597656 313.898438 L 448.1875 313.898438 C 478.632812 313.898438 503.320312 338.582031 503.320312 368.949219 Z M 503.320312 368.949219 L 503.320312 545.542969 L 326.648438 545.542969 C 296.28125 545.621094 271.597656 520.933594 271.597656 490.488281 L 271.597656 313.898438 L 448.1875 313.898438 C 478.632812 313.898438 503.320312 338.582031 503.320312 368.949219 Z M 503.320312 368.949219 " fill-opacity="1" fill-rule="nonzero"/></g><g clip-path="url(#063726ed72)"><path fill="#ffffff" d="M 503.320312 546.410156 L 326.648438 546.410156 C 295.886719 546.410156 270.808594 521.328125 270.808594 490.488281 L 270.808594 313.898438 C 270.808594 313.425781 271.121094 313.109375 271.597656 313.109375 L 448.1875 313.109375 C 479.027344 313.109375 504.027344 338.191406 504.027344 368.949219 L 504.027344 545.542969 C 504.109375 546.015625 503.714844 546.410156 503.320312 546.410156 Z M 272.386719 314.6875 L 272.386719 490.488281 C 272.386719 520.460938 296.757812 544.753906 326.648438 544.753906 L 502.453125 544.753906 L 502.453125 368.949219 C 502.453125 338.976562 478.082031 314.6875 448.1875 314.6875 Z M 272.386719 314.6875 " fill-opacity="1" fill-rule="nonzero"/></g><g fill="#0f4c81" fill-opacity="1"><g transform="translate(283.725042, 532.440592)"><g><path d="M 190.5625 -236.796875 C 180.195312 -242.378906 169.164062 -246.894531 157.46875 -250.34375 C 145.769531 -253.800781 134.738281 -255.53125 124.375 -255.53125 C 108.695312 -255.53125 96.273438 -252.007812 87.109375 -244.96875 C 77.941406 -237.925781 73.359375 -228.296875 73.359375 -216.078125 C 73.359375 -204.109375 78.738281 -194.335938 89.5 -186.765625 C 100.257812 -179.191406 115.609375 -171.6875 135.546875 -164.25 C 150.429688 -158.925781 162.988281 -153.140625 173.21875 -146.890625 C 183.445312 -140.648438 191.945312 -132.015625 198.71875 -120.984375 C 205.5 -109.960938 208.890625 -95.945312 208.890625 -78.9375 C 208.890625 -63.519531 205.035156 -49.566406 197.328125 -37.078125 C 189.628906 -24.585938 178.671875 -14.753906 164.453125 -7.578125 C 150.234375 -0.398438 133.554688 3.1875 114.421875 3.1875 C 96.609375 3.1875 79.460938 0.332031 62.984375 -5.375 C 46.503906 -11.09375 32.019531 -18.335938 19.53125 -27.109375 L 36.671875 -57.8125 C 46.503906 -50.363281 58.332031 -44.046875 72.15625 -38.859375 C 85.976562 -33.679688 98.867188 -31.09375 110.828125 -31.09375 C 126.242188 -31.09375 139.726562 -35.078125 151.28125 -43.046875 C 162.84375 -51.023438 168.625 -62.851562 168.625 -78.53125 C 168.625 -91.820312 163.773438 -102.382812 154.078125 -110.21875 C 144.378906 -118.0625 130.757812 -125.441406 113.21875 -132.359375 C 97.007812 -138.460938 83.519531 -144.4375 72.75 -150.28125 C 61.988281 -156.132812 52.753906 -164.175781 45.046875 -174.40625 C 37.335938 -184.644531 33.484375 -197.46875 33.484375 -212.875 C 33.484375 -235.46875 41.390625 -253.738281 57.203125 -267.6875 C 73.015625 -281.644531 93.546875 -289.023438 118.796875 -289.828125 C 149.890625 -289.828125 178.726562 -282.117188 205.3125 -266.703125 Z M 190.5625 -236.796875 "/></g></g></g></svg>